<svg width="1346" height="1436" viewBox="0 0 1346 1436" fill="none" xmlns="http://www.w3.org/2000/svg">
<g filter="url(#filter0_d_1_36)">
<path d="M622.03 1210.72L599.93 1188.62V1157.1L620.93 1136.1V164.32L574.8 118.18V63.41L519.55 8.11998H426.41C424.651 5.0666 421.942 2.6715 418.697 1.29912C415.451 -0.0732696 411.846 -0.347803 408.43 0.517289C405.014 1.38238 401.974 3.33974 399.772 6.09153C397.571 8.84331 396.329 12.2389 396.235 15.7615C396.141 19.2842 397.2 22.7411 399.252 25.6063C401.304 28.4715 404.235 30.588 407.6 31.6339C410.965 32.6798 414.58 32.5977 417.894 31.4002C421.208 30.2027 424.041 27.9553 425.96 25H512.57L557.99 70.42V117.11H505.28L468.37 80.2C469.509 78.4359 470.113 76.3799 470.11 74.28C470.11 72.1044 469.465 69.9777 468.256 68.1687C467.047 66.3598 465.33 64.9499 463.32 64.1173C461.31 63.2847 459.098 63.0669 456.964 63.4913C454.83 63.9158 452.87 64.9634 451.332 66.5018C449.793 68.0402 448.746 70.0002 448.321 72.134C447.897 74.2678 448.115 76.4795 448.947 78.4895C449.78 80.4995 451.19 82.2175 452.999 83.4261C454.808 84.6348 456.934 85.28 459.11 85.28C459.551 85.2789 459.992 85.2521 460.43 85.2L501.5 126.27H559.1L604.1 171.27V435.47C596.49 427.86 585.44 417.14 569.39 401.77V306.88C572.588 305.418 575.223 302.954 576.893 299.859C578.564 296.765 579.18 293.21 578.647 289.735C578.114 286.259 576.463 283.051 573.942 280.599C571.422 278.147 568.171 276.584 564.681 276.147C561.192 275.71 557.656 276.423 554.608 278.178C551.561 279.933 549.17 282.634 547.797 285.871C546.423 289.109 546.144 292.705 547 296.116C547.856 299.527 549.801 302.565 552.54 304.77V390.44L500.16 338V185.94L380.21 66C381.234 63.7405 381.457 61.1994 380.841 58.7963C380.226 56.3932 378.809 54.2719 376.825 52.7828C374.841 51.2938 372.408 50.526 369.929 50.6063C367.45 50.6867 365.072 51.6103 363.188 53.2247C361.305 54.8391 360.028 57.0477 359.57 59.4856C359.111 61.9235 359.498 64.4449 360.666 66.6333C361.834 68.8217 363.714 70.5462 365.995 71.522C368.275 72.4977 370.821 72.6664 373.21 72L490.97 189.74V262L403.13 174.16C403.388 173.201 403.519 172.213 403.52 171.22C403.522 168.65 402.679 166.151 401.121 164.107C399.563 162.063 397.376 160.588 394.897 159.909C392.419 159.229 389.786 159.384 387.403 160.348C385.021 161.312 383.022 163.032 381.713 165.244C380.405 167.456 379.859 170.037 380.161 172.589C380.463 175.141 381.596 177.523 383.384 179.369C385.173 181.214 387.519 182.42 390.06 182.802C392.602 183.183 395.198 182.719 397.45 181.48L434.07 218.09H393.9L300.16 124.35C301.398 121.81 301.715 118.918 301.057 116.17C300.399 113.422 298.806 110.988 296.551 109.284C294.297 107.58 291.52 106.713 288.697 106.83C285.873 106.947 283.178 108.042 281.072 109.926C278.967 111.811 277.581 114.369 277.153 117.162C276.725 119.955 277.28 122.811 278.725 125.24C280.169 127.669 282.412 129.52 285.071 130.478C287.73 131.436 290.639 131.44 293.3 130.49L390.09 227.28H443.26L490.97 275V341.81L552.57 403.41V409L555.17 411.49C575.72 431.16 598.17 453.23 604.17 459.79V647L400.24 443.14V293.28L287.9 181H175.57C174.238 177.637 171.84 174.804 168.744 172.935C165.648 171.065 162.024 170.261 158.428 170.647C154.832 171.033 151.461 172.588 148.833 175.072C146.204 177.556 144.462 180.834 143.874 184.402C143.285 187.971 143.883 191.634 145.575 194.831C147.267 198.027 149.96 200.581 153.242 202.101C156.524 203.621 160.213 204.024 163.746 203.247C167.278 202.47 170.459 200.557 172.8 197.8H280.92L375.3 292.18H319.46L277.03 249.75H164.43C163.37 247.251 161.479 245.195 159.077 243.93C156.675 242.666 153.91 242.27 151.25 242.811C148.589 243.352 146.198 244.795 144.48 246.897C142.762 248.999 141.824 251.63 141.824 254.345C141.824 257.06 142.762 259.691 144.48 261.793C146.198 263.895 148.589 265.338 151.25 265.879C153.91 266.42 156.675 266.024 159.077 264.76C161.479 263.495 163.37 261.439 164.43 258.94H273.23L315.65 301.37H383.39V450.12L604.13 670.86V685.93H570.34L527.02 642.61C528.184 639.932 528.378 636.932 527.567 634.127C526.756 631.322 524.991 628.888 522.577 627.244C520.164 625.601 517.252 624.852 514.345 625.125C511.438 625.399 508.718 626.678 506.653 628.743C504.588 630.808 503.309 633.528 503.035 636.435C502.762 639.342 503.511 642.254 505.154 644.667C506.798 647.081 509.232 648.846 512.037 649.657C514.842 650.468 517.842 650.274 520.52 649.11L566.52 695.11H604.11V728.93H532.85L432 628.09V583.31L349.51 500.81V414.58L282.63 347.71C283.572 345.572 283.798 343.188 283.274 340.911C282.751 338.635 281.506 336.588 279.726 335.076C277.945 333.565 275.723 332.668 273.392 332.521C271.061 332.374 268.745 332.984 266.788 334.26C264.832 335.537 263.34 337.41 262.534 339.603C261.729 341.796 261.654 344.19 262.319 346.429C262.985 348.668 264.356 350.632 266.228 352.029C268.101 353.425 270.374 354.18 272.71 354.18C273.724 354.177 274.734 354.036 275.71 353.76L340.35 418.39V491.62L295.8 447.12H225.17L143.87 365.82H82.8C81.2605 363.519 78.9729 361.822 76.3249 361.015C73.6769 360.208 70.8314 360.341 68.2705 361.392C65.7095 362.443 63.5908 364.347 62.2732 366.782C60.9557 369.217 60.5203 372.032 61.041 374.751C61.5617 377.469 63.0064 379.925 65.1302 381.7C67.2541 383.476 69.9264 384.462 72.6945 384.493C75.4626 384.523 78.1561 383.596 80.3186 381.868C82.481 380.139 83.9795 377.717 84.56 375.01H140.12L212.23 447.12H119.3L78.96 406.77C80.188 404.24 80.4993 401.361 79.8407 398.627C79.1821 395.893 77.5945 393.472 75.3491 391.778C73.1037 390.084 70.3398 389.222 67.5297 389.34C64.7195 389.458 62.0375 390.548 59.9418 392.424C57.846 394.3 56.4666 396.845 56.0392 399.625C55.6118 402.405 56.1629 405.247 57.5983 407.666C59.0338 410.084 61.2646 411.929 63.9095 412.886C66.5545 413.843 69.4495 413.851 72.1 412.91L115.5 456.31H292L422.8 587.12V625.4H357.69L269.59 537.3C270.134 535.935 270.412 534.479 270.41 533.01C270.412 530.505 269.61 528.066 268.121 526.051C266.632 524.037 264.535 522.554 262.14 521.821C259.744 521.088 257.177 521.144 254.816 521.981C252.455 522.817 250.425 524.39 249.025 526.468C247.625 528.545 246.93 531.017 247.042 533.52C247.153 536.022 248.065 538.423 249.644 540.367C251.223 542.312 253.385 543.699 255.811 544.322C258.237 544.945 260.799 544.773 263.12 543.83L353.88 634.59H425.5L529.04 738.13H604.13V804.33H515.51V771.89L450.51 706.89C450.652 706.213 450.722 705.522 450.72 704.83C450.727 702.612 450.016 700.451 448.691 698.672C447.367 696.892 445.502 695.589 443.376 694.959C441.249 694.329 438.975 694.405 436.895 695.175C434.815 695.946 433.041 697.37 431.839 699.234C430.636 701.098 430.07 703.301 430.225 705.514C430.38 707.727 431.248 709.829 432.699 711.507C434.15 713.185 436.106 714.347 438.273 714.82C440.44 715.293 442.702 715.051 444.72 714.13L506.26 775.66V804.3H463.67L172.9 513.56H54.9C53.2856 510.208 50.6102 507.483 47.2889 505.806C43.9675 504.13 40.1858 503.596 36.5303 504.288C32.8748 504.981 29.5499 506.86 27.0712 509.634C24.5925 512.408 23.0986 515.923 22.8211 519.633C22.5437 523.343 23.4983 527.041 25.5368 530.154C27.5753 533.266 30.5838 535.618 34.0957 536.846C37.6076 538.074 41.4266 538.109 44.9603 536.945C48.4941 535.782 51.545 533.484 53.64 530.41H165.93L346.26 710.75H265.8L203.86 648.81H97.7C96.2715 646.625 94.1365 644.997 91.6518 644.197C89.1671 643.397 86.4832 643.474 84.0484 644.416C81.6137 645.357 79.5757 647.105 78.2749 649.368C76.9742 651.631 76.4895 654.272 76.9017 656.849C77.314 659.427 78.5984 661.785 80.5401 663.529C82.4819 665.274 84.9636 666.299 87.5704 666.434C90.1772 666.568 92.7512 665.804 94.8625 664.269C96.9737 662.734 98.4943 660.521 99.17 658H190.86L144.63 704.22H34.56C33.2685 701.834 31.1925 699.968 28.6834 698.937C26.1742 697.906 23.386 697.773 20.7902 698.561C18.1945 699.35 15.9507 701.01 14.4384 703.262C12.9261 705.514 12.2381 708.22 12.4908 710.92C12.7436 713.621 13.9216 716.152 15.8255 718.084C17.7294 720.017 20.2423 721.232 22.9392 721.525C25.6361 721.818 28.3513 721.17 30.6256 719.691C32.8998 718.213 34.5935 715.994 35.42 713.41H148.42L201.93 659.9L261.93 719.9H355.4L439.8 804.29H214.44L170.7 760.59H34.01C32.5158 757.516 30.0645 755.01 27.0244 753.448C23.9842 751.886 20.5194 751.353 17.1503 751.928C13.7813 752.504 10.6899 754.157 8.34053 756.639C5.99119 759.122 4.51074 762.299 4.12157 765.695C3.7324 769.091 4.45553 772.521 6.18233 775.471C7.90913 778.42 10.5463 780.73 13.6979 782.053C16.8494 783.375 20.345 783.64 23.6597 782.806C26.9744 781.973 29.9291 780.086 32.08 777.43H163.72L207.46 821.18H439.85L367.95 893.08V898.49L313.08 953.36H264.32L223.32 912.36C224.023 910.167 224.014 907.809 223.294 905.621C222.575 903.434 221.182 901.531 219.315 900.183C217.448 898.836 215.202 898.114 212.9 898.12C210.597 898.127 208.356 898.861 206.497 900.219C204.637 901.577 203.255 903.488 202.548 905.68C201.841 907.871 201.845 910.23 202.56 912.418C203.275 914.607 204.664 916.513 206.529 917.864C208.393 919.215 210.638 919.942 212.94 919.94C214.36 919.936 215.766 919.658 217.08 919.12L251.35 953.39H190.8L113.72 876.31H63.61L35.38 848.08C36.1579 845.719 36.1676 843.172 35.4077 840.805C34.6478 838.438 33.1573 836.373 31.1504 834.906C29.1434 833.439 26.7233 832.646 24.2373 832.64C21.7514 832.634 19.3276 833.417 17.314 834.875C15.3005 836.332 13.8006 838.391 13.03 840.754C12.2593 843.118 12.2575 845.665 13.0246 848.029C13.7918 850.394 15.2886 852.455 17.3 853.915C19.3114 855.376 21.7341 856.162 24.22 856.16C25.979 856.16 27.7154 855.764 29.3 855L59.8 885.47H109.9L186.98 962.55H303.88L152.8 1113.63H83.16C81.5513 1111.43 79.2336 1109.85 76.5975 1109.16C73.9613 1108.47 71.1677 1108.71 68.6872 1109.84C66.2068 1110.97 64.1912 1112.92 62.9799 1115.36C61.7687 1117.8 61.4358 1120.58 62.0374 1123.24C62.6389 1125.9 64.1382 1128.27 66.2826 1129.95C68.427 1131.63 71.0854 1132.52 73.8101 1132.47C76.5347 1132.42 79.1591 1131.44 81.241 1129.68C83.323 1127.92 84.7353 1125.5 85.24 1122.82H156.61L243.49 1036V1100.57L218.34 1125.71C215.653 1124.91 212.772 1125.07 210.19 1126.16C207.608 1127.25 205.484 1129.21 204.18 1131.69C202.876 1134.17 202.473 1137.03 203.04 1139.77C203.607 1142.52 205.109 1144.98 207.289 1146.74C209.469 1148.5 212.192 1149.45 214.995 1149.43C217.798 1149.41 220.506 1148.42 222.658 1146.62C224.81 1144.82 226.273 1142.34 226.797 1139.58C227.32 1136.83 226.873 1133.98 225.53 1131.52L252.68 1104.37V1026.81L367.95 911.49V1051.94L179.95 1239.94C179.132 1239.82 178.307 1239.76 177.48 1239.75C173.808 1239.74 170.23 1240.92 167.276 1243.1C164.321 1245.28 162.146 1248.35 161.07 1251.86C159.994 1255.37 160.076 1259.14 161.302 1262.6C162.528 1266.06 164.835 1269.04 167.881 1271.09C170.927 1273.14 174.551 1274.16 178.22 1273.99C181.889 1273.83 185.407 1272.49 188.256 1270.17C191.106 1267.85 193.135 1264.68 194.045 1261.12C194.955 1257.57 194.697 1253.81 193.31 1250.41L384.8 1058.92V900.05L463.67 821.18H548.28L488.9 880.56L461.8 907.64H441.3C439.989 905.159 437.857 903.21 435.27 902.125C432.682 901.041 429.797 900.888 427.109 901.692C424.421 902.497 422.095 904.209 420.529 906.537C418.962 908.866 418.252 911.665 418.52 914.458C418.787 917.252 420.016 919.866 421.995 921.854C423.975 923.843 426.584 925.083 429.376 925.363C432.168 925.643 434.971 924.945 437.306 923.389C439.641 921.833 441.363 919.515 442.18 916.83H465.6L488.88 893.55V1023.32L468.88 1043.32C466.516 1041.78 463.707 1041.07 460.896 1041.31C458.086 1041.55 455.434 1042.71 453.361 1044.63C451.288 1046.54 449.912 1049.09 449.451 1051.87C448.989 1054.65 449.469 1057.51 450.814 1059.99C452.159 1062.47 454.292 1064.43 456.876 1065.56C459.46 1066.69 462.347 1066.93 465.081 1066.24C467.815 1065.54 470.239 1063.95 471.971 1061.73C473.702 1059.5 474.641 1056.76 474.64 1053.94C474.636 1052.93 474.508 1051.92 474.26 1050.94L498.03 1027.18V946.37L523.62 971.95V984.66C520.977 985.575 518.734 987.378 517.272 989.763C515.811 992.147 515.222 994.965 515.607 997.735C515.991 1000.51 517.324 1003.06 519.38 1004.95C521.435 1006.85 524.084 1007.97 526.876 1008.14C529.668 1008.3 532.43 1007.48 534.689 1005.84C536.949 1004.19 538.567 1001.81 539.267 999.1C539.967 996.392 539.706 993.525 538.529 990.989C537.351 988.452 535.33 986.403 532.81 985.19V968.19L498.03 933.41V884.41L561.22 821.23H604.07V876.12L573.55 906.63C571.303 905.398 568.714 904.939 566.18 905.322C563.647 905.706 561.31 906.911 559.528 908.753C557.747 910.594 556.619 912.97 556.32 915.515C556.021 918.06 556.566 920.632 557.871 922.837C559.177 925.042 561.171 926.757 563.546 927.717C565.922 928.678 568.547 928.832 571.018 928.155C573.489 927.478 575.67 926.008 577.224 923.971C578.778 921.934 579.62 919.442 579.62 916.88C579.613 915.891 579.482 914.907 579.23 913.95L604.07 889.11V992.38L525.31 1071.13V1076.55L467.96 1133.9H398.26L337.94 1194.21C335.456 1193.32 332.74 1193.31 330.25 1194.19C327.76 1195.06 325.647 1196.77 324.266 1199.02C322.886 1201.27 322.322 1203.92 322.67 1206.54C323.018 1209.16 324.256 1211.57 326.176 1213.38C328.096 1215.19 330.582 1216.29 333.214 1216.48C335.846 1216.68 338.465 1215.96 340.631 1214.45C342.796 1212.94 344.376 1210.73 345.104 1208.2C345.832 1205.66 345.665 1202.95 344.63 1200.52L402.12 1143H458.8L430.8 1171V1231.2L398.25 1263.75H329.99L318.39 1275.35H252.24L230.02 1297.58C227.272 1296.27 224.152 1295.97 221.205 1296.73C218.258 1297.49 215.67 1299.26 213.892 1301.73C212.114 1304.2 211.259 1307.21 211.475 1310.25C211.69 1313.28 212.964 1316.14 215.074 1318.34C217.184 1320.53 219.996 1321.91 223.021 1322.24C226.045 1322.58 229.091 1321.84 231.627 1320.16C234.162 1318.47 236.028 1315.96 236.899 1313.04C237.769 1310.13 237.589 1307 236.39 1304.2L256.05 1284.54H309.2L288.08 1305.66C286.751 1305.16 285.341 1304.9 283.92 1304.9C281.347 1304.9 278.843 1305.74 276.784 1307.28C274.725 1308.82 273.22 1310.99 272.495 1313.46C271.771 1315.93 271.864 1318.57 272.763 1320.98C273.661 1323.39 275.315 1325.45 277.479 1326.84C279.643 1328.24 282.199 1328.89 284.766 1328.71C287.333 1328.53 289.773 1327.52 291.721 1325.84C293.669 1324.16 295.021 1321.9 295.574 1319.38C296.127 1316.87 295.852 1314.24 294.79 1311.9L333.79 1272.9H389.12L360.43 1301.58C359.567 1301.39 358.685 1301.29 357.8 1301.29C355.088 1301.29 352.453 1302.19 350.31 1303.85C348.166 1305.51 346.637 1307.84 345.962 1310.46C345.288 1313.09 345.507 1315.87 346.585 1318.35C347.662 1320.84 349.538 1322.9 351.915 1324.2C354.293 1325.51 357.037 1325.98 359.714 1325.56C362.392 1325.13 364.851 1323.82 366.704 1321.84C368.557 1319.86 369.697 1317.32 369.947 1314.62C370.196 1311.92 369.539 1309.22 368.08 1306.93L440.08 1234.93V1174.74L525.39 1089.43V1214.43L362.8 1377.06C361.786 1376.86 360.754 1376.75 359.72 1376.75C356.536 1376.74 353.427 1377.72 350.822 1379.55C348.216 1381.38 346.243 1383.97 345.174 1386.97C344.105 1389.97 343.992 1393.23 344.852 1396.3C345.712 1399.36 347.501 1402.08 349.974 1404.09C352.447 1406.1 355.481 1407.29 358.658 1407.5C361.836 1407.71 365 1406.92 367.715 1405.26C370.429 1403.6 372.561 1401.13 373.816 1398.2C375.07 1395.28 375.386 1392.03 374.72 1388.92L439.8 1323.87V1358.57L401.99 1396.37C399.402 1395.25 396.504 1395.05 393.791 1395.83C391.079 1396.61 388.72 1398.3 387.119 1400.63C385.518 1402.95 384.773 1405.76 385.014 1408.57C385.254 1411.38 386.463 1414.02 388.435 1416.04C390.407 1418.06 393.019 1419.33 395.824 1419.63C398.629 1419.94 401.453 1419.26 403.813 1417.71C406.172 1416.16 407.921 1413.84 408.759 1411.15C409.598 1408.45 409.475 1405.55 408.41 1402.94L448.99 1362.37V1314.68L542.21 1221.46V1078.06L604.12 1016.15V1129.07L583.07 1150.07V1195.55L600.35 1212.83L547.57 1265.61V1311.61L479.3 1379.89C477.1 1379 474.672 1378.84 472.375 1379.44C470.077 1380.03 468.032 1381.35 466.538 1383.19C465.045 1385.04 464.184 1387.31 464.08 1389.68C463.977 1392.05 464.638 1394.39 465.965 1396.36C467.293 1398.33 469.217 1399.82 471.454 1400.61C473.691 1401.4 476.123 1401.45 478.392 1400.76C480.661 1400.06 482.648 1398.66 484.059 1396.75C485.47 1394.84 486.231 1392.53 486.23 1390.16C486.228 1388.93 486.021 1387.71 485.62 1386.55L556.8 1315.46V1269.46L605.21 1221.05V1310.79L521.41 1394.59C517.998 1393.02 514.17 1392.6 510.499 1393.39C506.829 1394.19 503.514 1396.15 501.05 1398.98C498.587 1401.81 497.108 1405.37 496.836 1409.11C496.563 1412.86 497.512 1416.59 499.539 1419.75C501.566 1422.91 504.562 1425.33 508.079 1426.65C511.597 1427.96 515.445 1428.1 519.048 1427.04C522.651 1425.99 525.815 1423.79 528.065 1420.78C530.315 1417.78 531.531 1414.12 531.53 1410.37C531.53 1409.7 531.494 1409.03 531.42 1408.37L622.06 1317.73L622.03 1210.72Z" fill="#5A842C"/>
<path d="M1187.91 360C1188.5 360.11 1246.96 372.61 1254.75 503.53C1254.82 504.698 1255.33 505.796 1256.18 506.599C1257.03 507.402 1258.16 507.849 1259.33 507.85H1259.61C1260.82 507.778 1261.96 507.226 1262.77 506.317C1263.58 505.408 1263.99 504.215 1263.92 503C1255.72 365 1192.3 351.49 1189.61 351C1189 350.842 1188.37 350.811 1187.75 350.908C1187.12 351.005 1186.53 351.229 1186 351.566C1185.47 351.903 1185.01 352.345 1184.66 352.865C1184.31 353.385 1184.06 353.973 1183.95 354.591C1183.83 355.209 1183.84 355.844 1183.98 356.457C1184.12 357.07 1184.38 357.649 1184.75 358.156C1185.13 358.663 1185.6 359.088 1186.14 359.406C1186.68 359.723 1187.29 359.925 1187.91 360V360Z" fill="#606060"/>
<path d="M973.01 734.48C976.434 735.723 980.048 736.359 983.69 736.36C989.921 736.372 996.008 734.485 1001.14 730.95C1010.68 724.35 1022.05 711.75 1022.05 689.24C1022.05 678.55 1017.48 670.24 1009.17 665.94C996.85 659.52 979.77 663.33 969.95 670.18C962.17 675.61 958.26 683.04 959.23 690.56C959.422 691.738 960.064 692.795 961.02 693.508C961.976 694.221 963.172 694.535 964.356 694.383C965.539 694.232 966.617 693.626 967.362 692.694C968.108 691.763 968.462 690.578 968.35 689.39C967.64 683.89 972.35 679.71 975.21 677.71C984.01 671.58 997.06 669.99 1004.92 674.09C1010.19 676.84 1012.86 681.94 1012.86 689.24C1012.86 707.77 1003.64 718.04 995.86 723.39C992.998 725.344 989.711 726.585 986.272 727.012C982.833 727.438 979.342 727.036 976.09 725.84C962.48 720.93 939.66 708.58 939.66 681.15C939.66 666.44 947.51 648.74 962.98 628.55C977.819 609.272 995.841 592.67 1016.27 579.46C1085.87 534.13 1107.9 485.2 1114.12 452.14C1120.93 415.96 1111.05 390.82 1110.63 389.77C1110.15 388.666 1109.27 387.793 1108.16 387.335C1107.04 386.878 1105.8 386.873 1104.68 387.323C1103.57 387.772 1102.68 388.64 1102.19 389.74C1101.71 390.84 1101.68 392.086 1102.1 393.21C1102.2 393.44 1111.41 416.87 1105.1 450.44C1103.29 459.923 1100.47 469.185 1096.69 478.07C1098.97 424.07 1074.07 399.07 1058.55 388.82C1036.68 374.38 1008.23 371.96 987.76 382.82C974.24 389.98 966.69 401.7 966.51 415.82C966.06 449.15 992.09 467.57 1018.02 468.53C1038.81 469.3 1054.08 458.31 1055.09 441.78C1055.86 429.18 1052.81 420.29 1046.02 415.34C1035.26 407.5 1019.7 413.44 1019.02 413.7C1017.88 414.143 1016.97 415.019 1016.48 416.134C1015.99 417.25 1015.97 418.515 1016.41 419.65C1016.85 420.785 1017.73 421.698 1018.84 422.187C1019.96 422.677 1021.22 422.703 1022.36 422.26C1025.56 421.03 1035.07 418.73 1040.61 422.78C1044.68 425.78 1046.46 431.97 1045.9 441.22C1045.09 454.42 1031.5 459.84 1018.34 459.35C1000.97 458.7 975.27 446.61 975.68 415.94C975.82 405.33 981.68 396.45 992.04 390.94C1009.36 381.77 1034.61 384.06 1053.47 396.51C1078.39 412.96 1090.33 444.03 1087.11 484.03C1081.76 499.948 1073.23 514.612 1062.03 527.13C1036.81 555.39 1002.38 568.08 959.67 564.84C958.473 564.781 957.3 565.191 956.401 565.984C955.502 566.777 954.948 567.889 954.857 569.084C954.765 570.279 955.144 571.463 955.912 572.383C956.681 573.303 957.778 573.887 958.97 574.01C963.503 574.35 967.887 574.517 972.12 574.51C987.802 574.651 1003.4 572.139 1018.24 567.08C1015.96 568.65 1013.64 570.22 1011.24 571.78C989.942 585.561 971.152 602.877 955.68 622.98C938.95 644.81 930.46 664.39 930.46 681.17C930.52 714.2 957.14 728.75 973.01 734.48Z" fill="#606060"/>
<path d="M1095.02 1246.52C1095.57 1246.52 1096.12 1246.42 1096.64 1246.22C1161.5 1221.79 1194.64 1179.85 1211.08 1148.96C1228.9 1115.42 1231.29 1087.96 1231.38 1086.8C1231.42 1085.62 1231.01 1084.46 1230.22 1083.58C1229.44 1082.69 1228.34 1082.14 1227.16 1082.05C1225.98 1081.95 1224.81 1082.31 1223.89 1083.06C1222.97 1083.8 1222.37 1084.88 1222.22 1086.05C1222.22 1086.32 1219.82 1113.05 1202.77 1145.05C1187.09 1174.41 1155.39 1214.3 1093.4 1237.65C1092.4 1238.03 1091.56 1238.75 1091.03 1239.69C1090.5 1240.63 1090.32 1241.72 1090.51 1242.77C1090.7 1243.83 1091.26 1244.79 1092.08 1245.48C1092.91 1246.17 1093.95 1246.55 1095.02 1246.55V1246.52Z" fill="#606060"/>
<path d="M1058.9 134.69C1059.69 134.94 1138.01 160.83 1141.71 263.91C1141.75 265.099 1142.25 266.226 1143.11 267.053C1143.97 267.879 1145.11 268.341 1146.3 268.34H1146.47C1147.69 268.296 1148.83 267.771 1149.66 266.88C1150.49 265.989 1150.93 264.806 1150.89 263.59C1148.89 206.49 1124.81 172.14 1105 153.37C1083.46 132.96 1062.54 126.21 1061.67 125.93C1060.51 125.563 1059.25 125.672 1058.17 126.234C1057.09 126.795 1056.27 127.763 1055.9 128.925C1055.54 130.087 1055.65 131.347 1056.21 132.428C1056.77 133.509 1057.74 134.323 1058.9 134.69V134.69Z" fill="#606060"/>
<path d="M1341.58 754.51C1340.96 693.8 1326.81 648.35 1322.05 634.74C1331.05 620.09 1335.37 604.14 1333.95 589.15C1332.24 570.97 1321.89 556.5 1307.09 545.74C1319.54 440.74 1285.82 373.81 1255.02 335.98C1227.91 302.7 1198.81 285.78 1187.23 279.91C1186.32 204.42 1166.17 149.83 1127.23 117.6C1086.71 84.01 1038.6 85.43 1021.48 87.24C1010.78 68.49 968.73 13.24 844.64 13.24C767.21 13.24 726.09 54.69 705.22 89.45C684.35 124.21 679.36 158.55 678.65 164.24C677.34 168.93 670.88 194.09 672.18 229.6C673.647 270.785 685.423 310.945 706.43 346.4C702.12 357.04 691.23 386.98 687.11 426.83C682.56 470.83 685.88 535.21 726.2 595.93C714.114 609.4 704.205 624.674 696.83 641.2C683.588 670.667 677.63 702.887 679.46 735.14C681.46 766.64 692.46 793.64 711.09 814.64C706.44 827.51 694.69 863.69 689.59 913.14C684.25 964.99 685.77 1040.87 720.1 1117.94C715.1 1128.68 703.32 1161 700.23 1231.8C698.23 1277.29 711.94 1321.56 738.78 1356.45C773 1400.93 823.22 1424.68 884 1425.12H885.1C933.1 1425.12 981.04 1402.39 1020.1 1361.03C1033.4 1346.97 1044.93 1331.34 1054.45 1314.49C1150.1 1291.22 1214.32 1247.85 1245.34 1185.49C1284.92 1105.95 1257.51 1022.04 1249.22 1000.49C1282.91 963.09 1307.73 920.91 1323.05 875.03C1335.8 837.07 1342.01 796.52 1341.58 754.51ZM714.98 642.79C714.18 652.25 713.8 661.31 713.85 670.08C714.06 710.3 722.85 740.6 740.58 762.72C756.07 782 784.01 795.33 811.76 796.72C813.26 796.79 814.76 796.83 816.24 796.83C836.11 796.83 853.4 790.25 865.3 778.09C870.697 772.57 874.907 766.005 877.672 758.797C880.438 751.59 881.699 743.893 881.38 736.18C881.107 728.928 879.332 721.811 876.167 715.28C873.001 708.749 868.514 702.947 862.99 698.24C843.07 681.24 810.55 679.72 790.5 694.87C781.8 701.45 777.8 710.5 778.96 721C780.88 737.87 796.12 754.25 809.73 760.33C810.281 760.576 810.875 760.712 811.478 760.728C812.081 760.745 812.682 760.643 813.245 760.427C813.809 760.212 814.325 759.887 814.763 759.473C815.201 759.058 815.554 758.561 815.8 758.01C816.046 757.459 816.181 756.865 816.198 756.262C816.215 755.659 816.113 755.058 815.897 754.495C815.682 753.931 815.357 753.415 814.943 752.977C814.528 752.539 814.031 752.186 813.48 751.94C802.48 747.02 789.62 733.39 788.09 719.94C787.27 712.74 789.94 706.75 796.09 702.14C812.6 689.66 840.53 691.05 857.09 705.14C861.651 709.033 865.355 713.83 867.968 719.228C870.581 724.626 872.046 730.507 872.27 736.5C872.535 742.957 871.477 749.399 869.161 755.432C866.844 761.465 863.318 766.96 858.8 771.58C847.88 782.74 831.33 788.37 812.27 787.45C787.42 786.24 761.52 773.97 747.81 756.91C731.39 736.48 723.31 708.04 723.11 669.98C723.117 654.305 724.26 638.65 726.53 623.14C730.933 616.674 735.835 610.562 741.19 604.86C741.601 604.657 741.995 604.423 742.37 604.16C743.528 603.327 744.454 602.212 745.06 600.92C751.997 594.068 759.717 588.057 768.06 583.01C769.009 582.442 769.836 581.693 770.496 580.805C771.155 579.917 771.633 578.908 771.902 577.836C772.171 576.763 772.227 575.648 772.065 574.554C771.903 573.46 771.528 572.409 770.96 571.46C770.392 570.511 769.643 569.684 768.755 569.024C767.867 568.365 766.858 567.887 765.786 567.618C763.62 567.074 761.326 567.413 759.41 568.56C752.017 573.011 745.045 578.125 738.58 583.84C709.72 539.11 698.07 487.11 703.96 429.1C706.208 406.949 710.907 385.115 717.97 364C719.34 365.91 720.74 367.83 722.18 369.74C722.842 370.64 723.677 371.399 724.636 371.973C725.594 372.547 726.657 372.925 727.763 373.085C728.868 373.245 729.995 373.183 731.076 372.904C732.158 372.624 733.174 372.132 734.064 371.457C734.954 370.782 735.701 369.936 736.261 368.97C736.821 368.003 737.184 366.935 737.328 365.827C737.472 364.719 737.394 363.594 737.099 362.516C736.804 361.438 736.298 360.43 735.61 359.55C707.113 322.065 690.868 276.704 689.09 229.65C688.529 215.615 689.239 201.557 691.21 187.65C697.51 149.81 732.21 138.84 733.87 138.35C735.951 137.665 737.684 136.196 738.7 134.255C739.717 132.314 739.938 130.053 739.317 127.952C738.695 125.851 737.28 124.074 735.371 122.999C733.462 121.923 731.209 121.633 729.09 122.19C719.318 125.454 710.23 130.488 702.28 137.04C706.582 123.435 712.434 110.369 719.72 98.1C746.81 52.96 788.86 30.1 844.72 30.1C915.07 30.1 956.04 49.1 978.01 65.03C994.75 77.17 1003.29 89.41 1006.84 95.52C988.64 104.34 965.65 123.99 972.38 154.23C972.607 155.25 973.174 156.161 973.989 156.816C974.803 157.47 975.815 157.828 976.86 157.83C977.196 157.828 977.531 157.791 977.86 157.72C979.049 157.452 980.084 156.724 980.738 155.696C981.393 154.667 981.612 153.421 981.35 152.23C975.35 125.23 998.23 110.03 1010.7 103.93L1011.5 105.93L1018.3 104.67C1018.85 104.57 1073.73 94.93 1116.72 130.67C1152.03 160.05 1170.09 211.37 1170.42 283.2C1165.47 292.3 1138.12 337.35 1082.9 337.35C1081.9 337.35 1080.9 337.35 1079.9 337.35C1041.16 336.2 1005.18 316.19 990.38 287.56C981.38 270.1 984.58 245.95 998.38 227.48C1010.38 211.48 1026.97 204.19 1043.96 207.48C1060.38 210.68 1079.72 224.29 1081.02 237.73C1083.02 258.87 1071.02 267.02 1051.29 278.57C1049.72 279.483 1048.17 280.4 1046.62 281.32C1045.67 281.886 1044.84 282.634 1044.18 283.52C1043.52 284.407 1043.04 285.415 1042.77 286.487C1042.49 287.559 1042.44 288.674 1042.6 289.768C1042.76 290.863 1043.13 291.915 1043.69 292.865C1044.26 293.815 1045.01 294.644 1045.9 295.306C1046.78 295.967 1047.79 296.447 1048.86 296.719C1049.93 296.99 1051.05 297.048 1052.14 296.889C1053.24 296.729 1054.29 296.356 1055.24 295.79C1056.74 294.89 1058.24 294.01 1059.78 293.12C1078.14 282.4 1100.99 269.05 1097.78 236.12C1095.4 211.57 1066.17 194.65 1047.17 190.95C1026.66 186.95 1006.11 194.21 990.71 210.47C977.03 211.11 922.82 212.24 877.34 193.47C852.44 183.21 836.58 158.69 837.86 132.47C838.63 116.61 844.54 105.94 855.93 99.86C869.03 92.86 885.32 94.86 895.55 104.86C906.19 115.17 906.83 129.04 897.49 147.26C896.986 148.245 896.68 149.32 896.591 150.422C896.502 151.525 896.631 152.635 896.971 153.688C897.311 154.741 897.855 155.717 898.572 156.56C899.289 157.402 900.165 158.096 901.15 158.6C902.135 159.104 903.209 159.41 904.312 159.499C905.415 159.588 906.525 159.458 907.578 159.119C908.631 158.779 909.607 158.235 910.449 157.518C911.292 156.801 911.986 155.925 912.49 154.94C928.66 123.39 918.59 103.72 907.29 92.76C891.61 77.57 867.78 74.46 848 85.04C831.42 93.89 822.1 110.04 821 131.68C820.231 148.466 824.876 165.054 834.25 179C823.541 177.069 812.655 176.288 801.78 176.67C767.67 178.17 745.11 193.55 736.53 221.17C731.29 238.06 733.67 255.62 743.06 269.34C749.77 279.13 762.32 290.39 784.6 290.39C786.06 290.39 787.6 290.34 789.11 290.24C817.11 288.42 821.34 270.75 821.84 263.24C822.94 246.63 810.84 227.07 797.84 224.47C796.657 224.257 795.438 224.517 794.445 225.194C793.452 225.87 792.763 226.909 792.527 228.087C792.292 229.266 792.528 230.49 793.184 231.496C793.841 232.503 794.866 233.211 796.04 233.47C803.88 235.04 813.56 249.74 812.71 262.62C811.97 273.7 803.62 280.08 788.56 281.06C771.84 282.14 759.12 276.45 750.68 264.14C742.89 252.75 740.94 238.08 745.35 223.88C752.76 200.03 771.82 187.23 802.01 185.88C819.66 185.08 836.25 188.57 843.43 190.36C851.216 198.422 860.586 204.785 870.95 209.05C890.03 216.91 910.22 221.53 928.66 224.2C922.328 229.869 916.729 236.305 911.99 243.36C897.74 264.6 884.46 302.21 902.11 360.81C915.25 404.43 913.37 440.28 896.67 464.51C882.91 484.51 864.16 489.97 858.1 490.4H857.76C851.14 491.13 831.87 491.12 822.37 482.4C818.21 478.61 816.26 473.4 816.37 466.54C816.71 448.83 826.74 439.34 836.01 436.38C845.67 433.28 855.19 436.48 861.47 444.94C862.872 446.487 864.797 447.459 866.874 447.668C868.951 447.876 871.032 447.307 872.713 446.07C874.394 444.833 875.557 443.016 875.976 440.971C876.395 438.926 876.04 436.798 874.98 435C864.36 420.7 847.45 415.13 830.85 420.44C812.23 426.44 799.93 444.44 799.51 466.33C799.28 478.03 803.26 487.95 811.02 495C822.94 505.85 841.17 507.58 851.6 507.58C855.71 507.58 858.6 507.31 859.42 507.23C870.2 506.41 885.28 500.14 898.32 488.13C905.15 510.83 917.72 562.42 900.97 590.19C894.77 600.46 885.31 606.31 871.97 608.07C854.41 610.39 842.76 605.59 839.15 594.55C835.25 582.63 841.82 566.23 852.93 560.15C863.35 554.45 875.33 558.95 886.66 572.82C887.432 573.767 888.548 574.368 889.763 574.492C890.978 574.616 892.193 574.252 893.14 573.48C894.087 572.708 894.688 571.592 894.812 570.377C894.936 569.161 894.572 567.947 893.8 567C873.58 542.25 855.41 548.32 848.54 552.08C833.4 560.36 825.11 581.08 830.44 597.4C832.57 603.93 839.93 617.82 863.74 617.82C866.904 617.81 870.064 617.593 873.2 617.17C889.2 615.05 901.2 607.56 908.81 594.92C929.06 561.34 912.16 500.79 905.57 480.47C907.27 478.47 908.92 476.34 910.47 474.09C924.21 454.16 936.7 417.48 918.18 355.98C890.94 265.56 942.8 232.6 953.59 226.85C962.53 227.46 970.52 227.65 977.05 227.65H978.28C966.46 249.49 965.05 275.44 975.28 295.29C993.08 329.72 1033.9 352.84 1079.28 354.18C1080.52 354.18 1081.74 354.23 1082.95 354.23C1140.55 354.23 1171.64 313.57 1182.22 296.35C1193.84 302.61 1218.71 318.13 1241.9 346.62C1281.65 395.43 1298.55 460.82 1291.13 536.32C1276.32 529.2 1259.24 524.79 1242.47 523.13C1165.84 515.53 1121.87 599.65 1079.39 680.99C1045.72 745.47 1010.9 812.14 961.89 828.55C900.03 849.27 838.14 853.49 787.61 840.47C762.96 834.11 742.88 823.12 727.85 808.12C727.261 807.226 726.508 806.452 725.63 805.84C708.19 787.33 698.1 763.07 696.28 734.11C694.447 702.56 700.894 671.08 714.98 642.79V642.79ZM1242.98 982.16C1235.14 962.93 1221.46 946.68 1202.81 934.52C1201.07 915.52 1198.2 862.82 1217.51 843.94C1223.08 838.49 1230.04 836.51 1238.78 837.88C1250.93 839.78 1259.53 844.41 1264.35 851.62C1271.04 861.62 1269.64 875.3 1267.35 885.01C1264.87 895.28 1254.77 905.7 1245.29 907.75C1235.15 909.96 1229.63 902.75 1227.84 895.35C1225.4 885.24 1229.09 872.84 1240.72 869.76C1241.3 869.606 1241.85 869.338 1242.33 868.972C1242.81 868.607 1243.21 868.15 1243.52 867.629C1243.82 867.107 1244.02 866.531 1244.1 865.934C1244.18 865.336 1244.14 864.728 1243.99 864.145C1243.83 863.562 1243.56 863.015 1243.2 862.535C1242.83 862.056 1242.38 861.653 1241.85 861.35C1241.33 861.046 1240.76 860.849 1240.16 860.768C1239.56 860.688 1238.95 860.726 1238.37 860.88C1221.1 865.45 1215.45 883.16 1218.9 897.5C1221.79 909.5 1231.68 920.12 1247.24 916.74C1260.24 913.92 1272.96 900.93 1276.24 887.17C1280.24 870.69 1278.75 856.63 1272 846.51C1265.69 837.08 1255 831.12 1240.22 828.8C1228.57 826.98 1218.77 829.85 1211.09 837.36C1190.87 857.14 1191.41 904.96 1193.09 928.8C1172.14 917.886 1148.61 912.868 1125.03 914.28C1074.49 917.28 1019.42 961.34 1021.35 1015.78C1022.28 1042.07 1037.54 1067.46 1063.21 1085.45C1083.29 1099.53 1106.67 1107.03 1128.52 1107.03C1137.36 1107.08 1146.15 1105.76 1154.58 1103.09C1171.25 1097.7 1185.35 1083.25 1193.27 1063.45C1202.04 1041.52 1201.71 1017.24 1192.4 1000.09C1181.46 979.92 1158.46 967.53 1127.64 965.18C1125.41 965.01 1123.21 965.732 1121.51 967.188C1119.82 968.643 1118.77 970.712 1118.6 972.94C1118.43 975.168 1119.15 977.372 1120.61 979.067C1122.06 980.762 1124.13 981.81 1126.36 981.98C1143.99 983.32 1167.19 988.98 1177.59 1008.12C1184.47 1020.79 1184.48 1040.05 1177.59 1057.19C1171.59 1072.33 1161.25 1083.19 1149.37 1087.06C1126.69 1094.39 1096.66 1088.34 1072.85 1071.66C1051.55 1056.72 1038.9 1036.14 1038.16 1015.18C1036.58 970.87 1084.09 933.6 1126 931.1C1168.11 928.59 1216.54 950.27 1230.12 996.44L1229.51 997.09L1231.75 1002.16C1232.15 1003.08 1271.75 1094.77 1230.3 1178.02C1203.08 1232.72 1147.3 1271.87 1064.38 1294.57C1072.64 1275.39 1077.31 1256.22 1077.54 1238.77C1077.84 1217.02 1071.27 1198.64 1058.54 1185.61C1044.54 1171.26 1023.82 1163.72 996.95 1163.18C996.67 1163.18 995.05 1163.18 992.5 1163.33C980.78 1154.89 957.32 1133.79 957.32 1100.21C957.32 1081.63 963.42 1069.63 975.45 1064.55C980.202 1062.59 985.391 1061.95 990.478 1062.67C995.565 1063.4 1000.37 1065.47 1004.38 1068.68C1012.17 1074.96 1016.12 1084.08 1016.12 1095.8C1016.12 1103.39 1013.91 1109.09 1009.54 1112.8C1000.43 1120.47 984.54 1117.8 984.41 1117.8C983.796 1117.63 983.153 1117.59 982.524 1117.69C981.894 1117.78 981.291 1118.01 980.752 1118.35C980.214 1118.69 979.753 1119.14 979.397 1119.66C979.041 1120.19 978.799 1120.79 978.686 1121.42C978.574 1122.04 978.592 1122.69 978.742 1123.3C978.891 1123.92 979.167 1124.5 979.553 1125.01C979.939 1125.52 980.426 1125.94 980.983 1126.25C981.541 1126.55 982.156 1126.74 982.79 1126.8C983.61 1126.95 1002.98 1130.25 1015.42 1119.8C1021.98 1114.3 1025.31 1106.22 1025.31 1095.8C1025.31 1077.57 1017.07 1067.1 1010.15 1061.53C1004.86 1057.24 998.509 1054.47 991.769 1053.51C985.029 1052.55 978.154 1053.44 971.88 1056.08C961.04 1060.66 948.13 1072.08 948.13 1100.21C948.13 1132.01 966.19 1153.46 979.83 1165.13C969.43 1167.36 956.24 1172.13 945.97 1182.24C935.35 1192.72 929.97 1206.67 929.97 1223.73C929.97 1243.08 938.75 1258.83 954.06 1266.93C967.9 1274.25 984.85 1273.53 997.25 1265.08C1005.36 1259.57 1018.48 1246.02 1015.25 1217.28C1015.13 1216.18 1014.79 1215.12 1014.26 1214.15C1013.72 1213.18 1013 1212.32 1012.14 1211.63C1011.28 1210.94 1010.29 1210.43 1009.22 1210.12C1008.16 1209.81 1007.05 1209.72 1005.95 1209.84C1004.85 1209.96 1003.79 1210.3 1002.82 1210.83C1001.85 1211.37 1000.99 1212.09 1000.3 1212.95C999.613 1213.81 999.099 1214.8 998.791 1215.87C998.483 1216.93 998.388 1218.04 998.51 1219.14C1000.16 1233.94 996.33 1245.31 987.74 1251.14C980.44 1256.14 970.3 1256.45 961.91 1252.02C952.3 1246.93 946.79 1236.61 946.79 1223.71C946.79 1211.37 950.46 1201.47 957.71 1194.29C971.99 1180.13 995.89 1180.01 996.63 1180.01C1050.19 1181.07 1061.01 1212.41 1060.63 1238.52C1059.72 1305.82 980.79 1408.27 885.04 1408.27H884.04C827.85 1407.86 783.44 1386.97 752.04 1346.18C727.62 1314.43 715.16 1274.07 716.97 1232.54C717.05 1230.72 717.14 1228.97 717.23 1227.22C728.45 1211.5 759.95 1175.94 810.73 1184.13C851.41 1190.69 857.55 1225.75 855.54 1254C853.81 1278.24 838.28 1298.82 815.96 1306.43C806.03 1309.69 795.471 1310.57 785.14 1308.98C761.74 1305.74 753.86 1289.07 754.28 1274.55C754.74 1258.62 765.62 1240.86 784.87 1239.31C785.471 1239.26 786.058 1239.1 786.595 1238.82C787.132 1238.55 787.61 1238.17 788.002 1237.71C788.393 1237.25 788.69 1236.72 788.876 1236.15C789.062 1235.57 789.133 1234.97 789.085 1234.36C789.037 1233.76 788.871 1233.18 788.597 1232.64C788.322 1232.1 787.945 1231.62 787.485 1231.23C787.026 1230.84 786.494 1230.54 785.92 1230.36C785.346 1230.17 784.741 1230.1 784.14 1230.15C759.55 1232.15 745.67 1254.36 745.14 1274.29C744.63 1291.94 754.48 1314 783.93 1318.09C787.78 1318.63 791.662 1318.91 795.55 1318.91C803.515 1318.95 811.431 1317.67 818.98 1315.13C844.8 1306.33 862.77 1282.59 864.76 1254.65C866.63 1228.39 862.3 1183.13 812.25 1175.06C782.93 1170.33 754.99 1178.34 731.45 1198.24C726.764 1202.22 722.369 1206.52 718.3 1211.13C721.06 1175.28 726.14 1152.39 730.24 1138.89C731.386 1140.76 733.216 1142.11 735.341 1142.65C737.467 1143.19 739.719 1142.88 741.617 1141.78C743.516 1140.68 744.911 1138.89 745.506 1136.78C746.1 1134.67 745.847 1132.41 744.8 1130.48C703 1050.48 700.8 969.39 706.25 915.48C709.228 885.655 715.325 856.224 724.44 827.67C740.37 840.92 760.17 850.83 783.36 856.81C805.002 862.227 827.241 864.895 849.55 864.75C870.237 864.672 890.876 862.745 911.22 858.99C908.36 860.93 905.567 862.93 902.84 864.99C887.144 876.798 873.122 890.681 861.16 906.26C860.977 906.434 860.807 906.622 860.65 906.82C860.15 907.5 809.97 973.96 756.46 954.75C742.92 949.89 741.79 936.29 741.94 930.67C742.33 915.58 751.37 901.55 762.94 898.05C774.36 894.6 784.23 896.16 790.73 902.44C797.81 909.27 800.03 920.92 796.73 933.61C796.473 934.77 796.675 935.985 797.294 937C797.913 938.014 798.901 938.75 800.05 939.053C801.2 939.355 802.422 939.201 803.46 938.623C804.498 938.044 805.272 937.087 805.62 935.95C809.83 920 806.62 905 797.17 895.83C788.17 887.13 775.08 884.83 760.33 889.25C742.79 894.55 733.18 913.98 732.76 930.43C732.36 946.3 740.06 958.63 753.37 963.43C760.888 966.152 768.824 967.543 776.82 967.54C801.56 967.54 823.87 954.41 840.24 940.94C836.568 948.871 833.509 957.071 831.09 965.47C822.75 994.62 825.24 1015.42 825.33 1016.18C825.45 1017.29 828.33 1043.5 848.33 1059.18C857.82 1066.63 869.46 1070.37 883.05 1070.37C886.888 1070.36 890.72 1070.09 894.52 1069.55C914.52 1066.76 930.26 1054.26 936.52 1036.12C941.87 1020.7 938.86 1004.51 928.65 993.85C920.89 985.76 902.07 973.92 863.12 985.6C862.542 985.773 862.004 986.059 861.537 986.44C861.069 986.821 860.681 987.291 860.395 987.822C859.818 988.895 859.69 990.153 860.04 991.32C860.39 992.487 861.189 993.467 862.262 994.045C863.335 994.622 864.593 994.75 865.76 994.4C891.15 986.79 911.13 988.85 922.01 1000.21C929.82 1008.36 932.01 1020.96 927.84 1033.1C922.69 1047.92 909.75 1058.1 893.21 1060.44C877.21 1062.67 864.04 1059.83 854.02 1052C837.13 1038.8 834.48 1015.49 834.44 1015.16C834.34 1014.37 825.44 935.45 908.44 872.36C918.397 864.872 928.994 858.276 940.11 852.65C949.143 850.303 958.187 847.62 967.24 844.6C976.383 841.47 985.051 837.096 993 831.6C1053 813.17 1115.18 809.05 1139.11 808.15C1149.68 807.812 1160.09 805.488 1169.8 801.3C1210.43 783.61 1219.86 753.39 1215.59 732.88C1211.51 713.26 1195.43 700.09 1175.59 700.09C1126.42 700.09 1121.08 748.59 1121.03 749.09C1120.97 749.69 1121.03 750.296 1121.21 750.873C1121.38 751.45 1121.67 751.987 1122.05 752.453C1122.43 752.919 1122.9 753.306 1123.44 753.59C1123.97 753.874 1124.55 754.051 1125.15 754.11C1125.75 754.169 1126.36 754.109 1126.93 753.934C1127.51 753.759 1128.05 753.472 1128.51 753.09C1128.98 752.707 1129.37 752.236 1129.65 751.705C1129.93 751.173 1130.11 750.59 1130.17 749.99C1130.34 748.32 1134.65 709.29 1175.59 709.29C1191.22 709.29 1203.39 719.29 1206.59 734.76C1210.15 751.9 1201.7 777.4 1166.12 792.88C1157.49 796.569 1148.24 798.605 1138.85 798.88C1117.28 799.7 1065.16 803.1 1010.93 817.01C1043.66 786.01 1069.34 736.8 1094.41 688.79C1136.14 608.89 1175.53 533.42 1240.89 539.89C1255.78 541.37 1276.63 546.25 1292.82 556.19C1293.37 556.652 1293.98 557.039 1294.63 557.34C1306.71 565.23 1315.84 576.11 1317.22 590.73C1318.88 608.35 1309.28 629.01 1292.16 644.65C1275.49 659.87 1255.51 667.08 1238.73 663.95C1216.96 659.88 1206.19 635.71 1207.12 615.03C1207.48 607.09 1210.73 581.03 1237.61 578.43C1239.94 578.23 1242.28 578.194 1244.61 578.32C1245.72 578.373 1246.82 578.208 1247.86 577.834C1248.9 577.461 1249.86 576.885 1250.68 576.142C1251.5 575.398 1252.16 574.5 1252.63 573.499C1253.11 572.499 1253.38 571.415 1253.43 570.31C1253.48 569.205 1253.32 568.1 1252.94 567.059C1252.57 566.018 1252 565.06 1251.25 564.241C1250.51 563.422 1249.61 562.758 1248.61 562.286C1247.61 561.813 1246.53 561.543 1245.42 561.49C1242.28 561.322 1239.13 561.379 1236 561.66C1209.54 564.18 1191.59 584.83 1190.27 614.27C1189.03 642.04 1204.49 674.69 1235.61 680.51C1257.61 684.61 1282.95 675.86 1303.5 657.09C1305.63 655.09 1307.63 653.09 1309.56 651.09C1319.34 684.992 1324.45 720.068 1324.76 755.35C1325.48 841.77 1297.97 918 1242.97 982.16H1242.98Z" fill="#606060"/>
</g>
<defs>
<filter id="filter0_d_1_36" x="0.0188599" y="0.0224609" width="1345.58" height="1435.72" filterUnits="userSpaceOnUse" color-interpolation-filters="sRGB">
<feFlood flood-opacity="0" result="BackgroundImageFix"/>
<feColorMatrix in="SourceAlpha" type="matrix" values="0 0 0 0 0 0 0 0 0 0 0 0 0 0 0 0 0 0 127 0" result="hardAlpha"/>
<feOffset dy="4"/>
<feGaussianBlur stdDeviation="2"/>
<feComposite in2="hardAlpha" operator="out"/>
<feColorMatrix type="matrix" values="0 0 0 0 0 0 0 0 0 0 0 0 0 0 0 0 0 0 0.25 0"/>
<feBlend mode="normal" in2="BackgroundImageFix" result="effect1_dropShadow_1_36"/>
<feBlend mode="normal" in="SourceGraphic" in2="effect1_dropShadow_1_36" result="shape"/>
</filter>
</defs>
</svg>
